<!-- Generator: Adobe Illustrator 21.1.0, SVG Export Plug-In  -->
<svg version="1.1"
	 xmlns="http://www.w3.org/2000/svg" xmlns:xlink="http://www.w3.org/1999/xlink" xmlns:a="http://ns.adobe.com/AdobeSVGViewerExtensions/3.0/"
	 x="0px" y="0px" width="73.3px" height="73.9px" viewBox="0 0 73.3 73.9" style="enable-background:new 0 0 73.3 73.9;"
	 xml:space="preserve">
<style type="text/css">
	.st0{fill:#425165;}
</style>
<defs>
</defs>
<g>
	<path class="st0" d="M23.6,36.8c-4.4-9.7-8.8-19.3-13.3-29c-2.1,0-4.3,0-6.5,0C1.4,7.7-0.1,6.1,0,3.6c0.1-2,1.4-3.5,3.4-3.6
		C6.4,0,9.3,0,12.2,0.1c2.2,0.1,3.7,1.2,4.6,3.2c0.8,1.6,1.7,3.2,2.4,4.9c0.6,1.4,1.3,1.8,2.9,1.8c14.9-0.1,29.8,0,44.6,0
		c0.8,0,1.7,0,2.5,0.1c2.6,0.2,4,1.6,4,4.2c0.1,6.7,0.1,13.3,0,20c0,2.5-1.5,4-4,4.3c-9.8,1.1-19.5,2.2-29.3,3.3
		c-4.5,0.5-9,1-13.5,1.5c-0.5,0.1-1,0.2-1.4,0.4c-1.2,0.5-1.9,1.7-1.6,2.8c0.2,1,1.1,1.7,2.4,1.8c0.4,0,0.9,0,1.3,0
		c12.9,0,25.8,0,38.7,0c0.7,0,1.5,0,2.2,0.1c1.8,0.3,2.9,1.7,2.8,3.4c0,1.8-1.3,3.2-3.1,3.4c-0.3,0-0.7,0-1,0c-13.8,0-27.6,0-41.4,0
		c-2.8,0-5.3-0.8-7.2-2.9c-3.5-3.7-3-9.1,1.1-12.6C20.6,38.9,22,37.9,23.6,36.8z M55.2,23.2c4.2,0,8.1,0,12.1,0c0-2.4,0-4.7,0-7
		c-4.6,0-9.1,0-13.7,0C54.2,18.5,54.7,20.8,55.2,23.2z M27.9,27.2c1.5,3.1,2.8,6,4.1,8.9c0.1,0.3,0.6,0.5,0.9,0.5
		c2.6-0.2,5.1-0.5,7.9-0.7c-0.9-2.8-1.7-5.5-2.6-8.1c-0.1-0.2-0.5-0.5-0.8-0.5C34.3,27.2,31.3,27.2,27.9,27.2z M23,16
		c1.1,2.4,2.1,4.6,3.1,6.8c0.1,0.3,0.8,0.5,1.2,0.5c2.6,0,5.2,0,7.9,0c0.6,0,1.1,0,1.9,0c-0.8-2.4-1.4-4.5-2.1-6.6
		C34.8,16.4,34.3,16,34,16C30.4,16,26.9,16,23,16z M49.8,16.1c-3.8,0-7.4,0-11.1,0c0.7,2.2,1.4,4.2,1.9,6.3c0.2,0.9,0.8,0.9,1.5,0.9
		c2.6,0,5.2,0,7.8,0c0.5,0,0.9,0,1.5-0.1C50.8,20.7,50.3,18.4,49.8,16.1z M54.2,34.4c-0.7-2.3-1.2-4.4-1.9-6.5
		c-0.1-0.3-0.8-0.7-1.2-0.7c-2.3-0.1-4.6,0-6.9,0c-0.7,0-1.3,0-2.2,0c0.9,2.9,1.8,5.5,2.7,8.2C47.8,35.1,50.9,34.7,54.2,34.4z
		 M56.1,27.3c0.6,2.2,1.1,4.4,1.7,6.6c3.2-0.3,6.3-0.6,9.5-1c0-2,0-3.8,0-5.7C63.5,27.3,59.9,27.3,56.1,27.3z"/>
	<path class="st0" d="M67.7,67.3c0,3.8-3,6.7-6.7,6.6c-3.7,0-6.7-3.1-6.7-6.7c0-3.7,3.1-6.7,6.8-6.7C64.9,60.5,67.7,63.4,67.7,67.3z
		"/>
	<path class="st0" d="M15.6,73.9c-3.7,0-6.7-3.2-6.6-6.8c0.1-3.7,3.1-6.7,6.8-6.6c3.8,0,6.8,3.1,6.7,6.8
		C22.3,71,19.3,73.9,15.6,73.9z"/>
</g>
</svg>
